<?xml version="1.0" ?><svg viewBox="0 0 64 64" xmlns="http://www.w3.org/2000/svg"><g data-name="Support-Call Center-Information-Help-Customer Service" id="Support-Call_Center-Information-Help-Customer_Service"><path d="M43,3a17,17,0,1,1-9.65,30.99L28,36l1.93-5.14A16.992,16.992,0,0,1,43,3Zm7,19V18H45V13H41v5H36v4h5v5h4V22Z" style="fill:#bddbff"/><path d="M31,46,42.32,57.32A25.987,25.987,0,0,1,18.3,58.7,25.989,25.989,0,0,1,3,35,25.76,25.76,0,0,1,6.68,21.68L18,33l-2.2,2.2a5.988,5.988,0,0,0-1.16,6.87,16.082,16.082,0,0,0,7.29,7.29A5.988,5.988,0,0,0,28.8,48.2Z" style="fill:#bddbff"/><path d="M37.622,42.207a3.073,3.073,0,0,0-4.243,0L28.1,47.491a4.982,4.982,0,0,1-5.719.971,15.088,15.088,0,0,1-6.838-6.838,4.983,4.983,0,0,1,.971-5.719l5.284-5.284a3,3,0,0,0,0-4.242l-8.99-8.99a3,3,0,0,0-4.405.163A27.117,27.117,0,0,0,2,35,26.7,26.7,0,0,0,4.388,46.111a26.982,26.982,0,0,0,13.5,13.5A27.053,27.053,0,0,0,46.448,55.6a2.977,2.977,0,0,0,1.044-2.144,3.025,3.025,0,0,0-.881-2.26ZM9.924,18.845a.966.966,0,0,1,.7-.339h.041a1.02,1.02,0,0,1,.721.3l8.989,8.99a1,1,0,0,1,0,1.414L18,31.586,7.96,21.546A24.766,24.766,0,0,1,9.924,18.845Zm8.787,38.944a24.991,24.991,0,0,1-12.5-12.5,24.959,24.959,0,0,1,.7-21.964L16.586,33,15.1,34.491a6.98,6.98,0,0,0-1.351,8.016,17.1,17.1,0,0,0,7.749,7.75,6.981,6.981,0,0,0,8.016-1.352L31,47.414l9.676,9.677a24.96,24.96,0,0,1-21.965.7Zm26.443-3.714a24.617,24.617,0,0,1-2.7,1.965L32.414,46l2.379-2.379a1.021,1.021,0,0,1,1.414,0l8.99,8.99a1.028,1.028,0,0,1,.3.763A.961.961,0,0,1,45.154,54.075Z" style="fill:#3d9ae2"/><path d="M43,2A18,18,0,0,0,28.791,31.045l-1.728,4.6a1,1,0,0,0,1.288,1.289l4.875-1.829A18,18,0,1,0,43,2Zm0,34a15.906,15.906,0,0,1-9.077-2.831,1.006,1.006,0,0,0-.568-.177.994.994,0,0,0-.351.064l-3.295,1.235,1.154-3.077a1,1,0,0,0-.168-.991A16,16,0,1,1,43,36Z" style="fill:#3d9ae2"/><path d="M50,17H46V13a1,1,0,0,0-1-1H41a1,1,0,0,0-1,1v4H36a1,1,0,0,0-1,1v4a1,1,0,0,0,1,1h4v4a1,1,0,0,0,1,1h4a1,1,0,0,0,1-1V23h4a1,1,0,0,0,1-1V18A1,1,0,0,0,50,17Zm-1,4H45a1,1,0,0,0-1,1v4H42V22a1,1,0,0,0-1-1H37V19h4a1,1,0,0,0,1-1V14h2v4a1,1,0,0,0,1,1h4Z" style="fill:#3d9ae2"/></g></svg>