<?xml version="1.0" ?><svg id="Layer_1" style="enable-background:new 0 0 32 32;" version="1.1" viewBox="0 0 32 32" xml:space="preserve" xmlns="http://www.w3.org/2000/svg" xmlns:xlink="http://www.w3.org/1999/xlink"><style type="text/css">
	.st0{fill:#B9F3F8;}
	.st1{fill:#55C1FA;}
</style><g id="Magnifier"><g><path class="st0" d="M18.805,8.906c-1.322-1.322-3.08-2.05-4.95-2.05s-3.627,0.728-4.95,2.05c-2.729,2.729-2.729,7.17,0,9.9    c1.323,1.322,3.081,2.049,4.95,2.049s3.627-0.728,4.949-2.05C21.534,16.076,21.534,11.635,18.805,8.906z"/><path class="st1" d="M28.723,23.836l-4.717-3.871c2.812-4.634,2.132-10.59-1.771-14.492C19.996,3.233,17.019,2,13.853,2    S7.711,3.232,5.472,5.472c-2.24,2.239-3.473,5.216-3.473,8.382s1.233,6.143,3.473,8.382c2.302,2.302,5.33,3.483,8.379,3.483    c2.091,0,4.193-0.556,6.078-1.686l3.905,4.689c0.656,0.806,1.654,1.281,2.692,1.28c0.916,0,1.803-0.364,2.463-1.018    c0.691-0.698,1.059-1.66,1.007-2.639C29.944,25.368,29.48,24.453,28.723,23.836z M8.906,18.806c-2.729-2.73-2.729-7.171,0-9.9    c1.322-1.322,3.08-2.05,4.95-2.05s3.627,0.728,4.95,2.05c2.729,2.729,2.729,7.17,0,9.9c-1.322,1.322-3.08,2.05-4.949,2.05    C11.987,20.855,10.229,20.128,8.906,18.806z"/></g></g></svg>